# xmcd
#
# Track frame offsets:
# 150
# 11630
# 30710
# 50495
# 65092
# 89792
# 108037
# 126357
# 138432
# 147970
# 162835
# 179172
# 189080
# 198447
# 207185
# 218742
# 229342
# 248360
# 261292
# 271807
#
# Disc length: 3836 seconds
#
#
# Revision: 3
# Processed by: cddbd v1.5.2PL0 Copyright (c) Steve Scherf et al.
# Submitted via: FreeRIP 2.945 
#
DISCID=290efa14
DTITLE=Tim Maia - Tim Maia
DYEAR=2000
DGENRE=MPB
TTITLE0=Não quero dinheiro (Só quero amar)
TTITLE1=Gostava tanto de você
TTITLE2=O descobridor dos sete mares
TTITLE3=Chocolate
TTITLE4=Me dê motivo
TTITLE5=Você
TTITLE6=Eu amo você
TTITLE7=A festa do Santo Reis
TTITLE8=Primavera (Vai chuva)
TTITLE9=Azul da cor do mar
TTITLE10=Réu confesso
TTITLE11=Coroné Antônio Bento
TTITLE12=Cristina
TTITLE13=Salve Nossa Senhora
TTITLE14=O que me importa
TTITLE15=Padre Cícero
TTITLE16=Formigueiro
TTITLE17=Não vou ficar
TTITLE18=Canário do reino
TTITLE19=Nosso adeus
EXTD=
EXTT0=
EXTT1=
EXTT2=
EXTT3=
EXTT4=
EXTT5=
EXTT6=
EXTT7=
EXTT8=
EXTT9=
EXTT10=
EXTT11=
EXTT12=
EXTT13=
EXTT14=
EXTT15=
EXTT16=
EXTT17=
EXTT18=
EXTT19=
PLAYORDER=
